<svg width="18" height="26" viewBox="0 0 18 26" fill="none" xmlns="http://www.w3.org/2000/svg">
<path fill-rule="evenodd" clip-rule="evenodd" d="M9.32109 11.7218C7.31401 11.7218 5.6855 10.0944 5.6855 8.08733C5.6855 6.07912 7.31401 4.45061 9.32109 4.45061C11.3304 4.45061 12.9578 6.07912 12.9578 8.08733C12.9578 10.0944 11.3304 11.7218 9.32109 11.7218ZM17.9767 9.15331C17.9767 4.37411 14.1003 0.5 9.32222 0.5C4.54301 0.5 0.666656 4.37411 0.666656 9.15331C0.666656 10.7306 1.09755 12.2061 1.83221 13.4803H1.82602L9.31884 25.2477L16.8162 13.4803H16.8077C17.5469 12.2061 17.9767 10.7306 17.9767 9.15331Z" fill="white"/>
</svg>
